<svg class="lds-palette-ring" width="100%" height="100%" xmlns="http://www.w3.org/2000/svg" xmlns:xlink="http://www.w3.org/1999/xlink" viewBox="0 0 100 100" preserveAspectRatio="xMidYMid"><g><path d="M70 50 A20 20 0 0 1 62.469796037174675 65.6366296493606" fill="none" stroke="#93dbe9" stroke-width="10"/><path d="M62.469796037174675 65.6366296493606 A20 20 0 0 1 45.54958132087371 69.49855824363647" fill="none" stroke="#689cc5" stroke-width="10"/><path d="M45.54958132087371 69.49855824363647 A20 20 0 0 1 31.98062264195162 58.67767478235116" fill="none" stroke="#5e6fa3" stroke-width="10"/><path d="M31.98062264195162 58.67767478235116 A20 20 0 0 1 31.980622641951616 41.32232521764884" fill="none" stroke="#3b4368" stroke-width="10"/><path d="M31.980622641951616 41.32232521764884 A20 20 0 0 1 45.549581320873706 30.501441756363526" fill="none" stroke="#191d3a" stroke-width="10"/><path d="M45.549581320873706 30.501441756363526 A20 20 0 0 1 62.46979603717467 34.3633703506394" fill="none" stroke="#d9dbee" stroke-width="10"/><path d="M62.46979603717467 34.3633703506394 A20 20 0 0 1 70 49.99999999999999" fill="none" stroke="#b3b7e2" stroke-width="10"/><animateTransform attributeName="transform" type="rotate" values="0 50 50;360 50 50" times="0;1" dur="1" repeatCount="indefinite"/></g></svg>